<svg width="65" height="65" viewBox="0 0 65 65" fill="none" xmlns="http://www.w3.org/2000/svg">
<path d="M21.6667 32.5C24.5399 32.5 27.2954 31.3586 29.327 29.327C31.3586 27.2954 32.5 24.5398 32.5 21.6667C32.5 18.7935 31.3586 16.038 29.327 14.0063C27.2954 11.9747 24.5399 10.8333 21.6667 10.8333C18.7935 10.8333 16.038 11.9747 14.0063 14.0063C11.9747 16.038 10.8333 18.7935 10.8333 21.6667C10.8333 24.5398 11.9747 27.2954 14.0063 29.327C16.038 31.3586 18.7935 32.5 21.6667 32.5ZM46.0417 32.5C48.1966 32.5 50.2632 31.644 51.7869 30.1202C53.3106 28.5965 54.1667 26.5299 54.1667 24.375C54.1667 22.2201 53.3106 20.1535 51.7869 18.6298C50.2632 17.106 48.1966 16.25 46.0417 16.25C43.8868 16.25 41.8202 17.106 40.2964 18.6298C38.7727 20.1535 37.9167 22.2201 37.9167 24.375C37.9167 26.5299 38.7727 28.5965 40.2964 30.1202C41.8202 31.644 43.8868 32.5 46.0417 32.5ZM11.5104 37.9167C9.89426 37.9167 8.34429 38.5587 7.20149 39.7015C6.05869 40.8443 5.41667 42.3943 5.41667 44.0104V44.6875C5.41667 44.6875 5.41667 56.875 21.6667 56.875C37.9167 56.875 37.9167 44.6875 37.9167 44.6875V44.0104C37.9167 42.3943 37.2747 40.8443 36.1319 39.7015C34.9891 38.5587 33.4391 37.9167 31.8229 37.9167H11.5104ZM46.0417 52.8125C42.8702 52.8125 40.4408 52.3223 38.5802 51.5721C39.663 49.7445 40.3427 47.7065 40.5735 45.5948C40.5999 45.3382 40.6171 45.0807 40.625 44.8229V44.0104C40.6285 41.7415 39.7529 39.5594 38.1821 37.9221C38.2741 37.9183 38.3662 37.9165 38.4583 37.9167H53.625C55.2053 37.9167 56.7208 38.5444 57.8382 39.6618C58.9556 40.7792 59.5833 42.2948 59.5833 43.875C59.5833 43.875 59.5833 52.8125 46.0417 52.8125Z" fill="white"/>
</svg>
