<svg width="50" height="50" viewBox="0 0 50 50" fill="none" xmlns="http://www.w3.org/2000/svg">
<path d="M11.168 13.9965C13.4522 13.9965 15.304 12.1448 15.304 9.8605C15.304 7.57625 13.4522 5.7245 11.168 5.7245C8.88375 5.7245 7.032 7.57625 7.032 9.8605C7.032 12.1448 8.88375 13.9965 11.168 13.9965Z" fill="white"/>
<path d="M18.9995 15.1085V15.0885H4.1815V15.102C3.6675 15.1021 3.17438 15.3054 2.80966 15.6676C2.44494 16.0298 2.2382 16.5215 2.2345 17.0355H2.233V28.755H2.2525C2.2525 28.9833 2.29747 29.2094 2.38484 29.4203C2.4722 29.6312 2.60026 29.8229 2.7617 29.9843C2.92313 30.1457 3.11478 30.2738 3.32571 30.3612C3.53663 30.4485 3.7627 30.4935 3.991 30.4935C4.2193 30.4935 4.44537 30.4485 4.6563 30.3612C4.86722 30.2738 5.05887 30.1457 5.22031 29.9843C5.38174 29.8229 5.5098 29.6312 5.59717 29.4203C5.68453 29.2094 5.7295 28.9833 5.7295 28.755H5.7335V20.574H5.738C5.74317 20.4314 5.8034 20.2963 5.90604 20.1971C6.00869 20.0979 6.14576 20.0423 6.2885 20.042C6.5875 20.042 6.8275 20.2785 6.84 20.574H6.8445V42.0265C6.84483 42.566 7.05945 43.0832 7.44113 43.4644C7.82281 43.8456 8.3403 44.0596 8.87975 44.0592C9.4192 44.0589 9.93643 43.8443 10.3176 43.4626C10.6989 43.0809 10.9128 42.5634 10.9125 42.024V31.222H10.9275C10.9253 31.1466 10.9382 31.0716 10.9655 31.0013C10.9928 30.931 11.0339 30.8669 11.0864 30.8127C11.1389 30.7586 11.2018 30.7156 11.2712 30.6862C11.3407 30.6569 11.4153 30.6417 11.4908 30.6417C11.5662 30.6417 11.6408 30.6569 11.7103 30.6862C11.7797 30.7156 11.8426 30.7586 11.8951 30.8127C11.9476 30.8669 11.9888 30.931 12.016 31.0013C12.0433 31.0716 12.0562 31.1466 12.054 31.222H12.0685V42.024C12.0829 42.554 12.3035 43.0574 12.6835 43.4271C13.0634 43.7969 13.5726 44.0038 14.1028 44.0038C14.6329 44.0038 15.1421 43.7969 15.522 43.4271C15.902 43.0574 16.1226 42.554 16.137 42.024V20.574C16.137 20.4267 16.1955 20.2854 16.2997 20.1812C16.4039 20.077 16.5452 20.0185 16.6925 20.0185C16.8398 20.0185 16.9811 20.077 17.0853 20.1812C17.1895 20.2854 17.248 20.4267 17.248 20.574V28.7555H17.267C17.267 29.2167 17.4502 29.659 17.7763 29.9852C18.1025 30.3113 18.5448 30.4945 19.006 30.4945C19.4672 30.4945 19.9095 30.3113 20.2357 29.9852C20.5618 29.659 20.745 29.2167 20.745 28.7555H20.7485V17.036C20.7495 16.0285 19.981 15.209 18.9995 15.1085Z" fill="white"/>
<path d="M36.1485 14.044C38.446 14.044 40.3085 12.1815 40.3085 9.884C40.3085 7.58649 38.446 5.724 36.1485 5.724C33.851 5.724 31.9885 7.58649 31.9885 9.884C31.9885 12.1815 33.851 14.044 36.1485 14.044Z" fill="white"/>
<path d="M47.767 27.0805L44.992 16.7245C44.9905 16.7165 44.9875 16.7085 44.9855 16.7005L44.9365 16.518L44.9295 16.52C44.6765 15.7305 43.9455 15.1555 43.072 15.1555C43.065 15.1555 43.059 15.1575 43.052 15.1575V15.1215H29.992V15.1555C29.1185 15.1555 28.3875 15.731 28.1345 16.52L28.1275 16.518L28.0785 16.7C28.0765 16.7085 28.0735 16.7165 28.072 16.725L25.297 27.0805L25.323 27.0875C25.3105 27.173 25.297 27.2585 25.297 27.3475C25.297 27.8164 25.4833 28.2661 25.8148 28.5977C26.1464 28.9292 26.5961 29.1155 27.065 29.1155C27.4197 29.1151 27.766 29.0079 28.0588 28.8077C28.3516 28.6076 28.5773 28.3238 28.7065 27.9935L28.719 27.997L30.7545 20.4005V20.429H30.7705C30.826 20.179 31.0385 19.988 31.3055 19.988C31.5725 19.988 31.785 20.179 31.8405 20.429H31.857V20.511C31.858 20.5235 31.8645 20.5345 31.8645 20.547C31.8645 20.5595 31.858 20.5705 31.857 20.583V20.6605L28.598 32.8235C28.5446 32.9327 28.5129 33.0512 28.5045 33.1725L28.4975 33.198L28.5015 33.199C28.501 33.213 28.4975 33.226 28.4975 33.24C28.4975 33.764 28.9225 34.1885 29.4465 34.1885H31.8565V42.2285C31.8565 42.771 32.072 43.2913 32.4556 43.6749C32.8392 44.0585 33.3595 44.274 33.902 44.274C34.4445 44.274 34.9648 44.0585 35.3484 43.6749C35.732 43.2913 35.9475 42.771 35.9475 42.2285V34.1885H37.1105V42.2285C37.1105 42.771 37.326 43.2913 37.7096 43.6749C38.0932 44.0585 38.6135 44.274 39.156 44.274C39.6985 44.274 40.2188 44.0585 40.6024 43.6749C40.986 43.2913 41.2015 42.771 41.2015 42.2285V34.1885H43.619C43.7436 34.1886 43.867 34.1641 43.9821 34.1164C44.0973 34.0688 44.2019 33.9989 44.29 33.9109C44.3781 33.8228 44.448 33.7182 44.4957 33.6031C44.5434 33.488 44.568 33.3646 44.568 33.24C44.568 33.226 44.5645 33.2125 44.564 33.199L44.568 33.198L44.561 33.1725C44.5526 33.0512 44.5209 32.9327 44.4675 32.8235L41.218 20.697L41.2285 20.694C41.215 20.646 41.1985 20.5985 41.1985 20.546C41.1985 20.238 41.4485 19.987 41.7575 19.987C42.02 19.987 42.2305 20.1725 42.29 20.417L42.3115 20.4115L44.344 27.996L44.356 27.9925C44.5056 28.3763 44.7848 28.6958 45.1451 28.8954C45.5055 29.0951 45.9243 29.1624 46.3291 29.0857C46.7338 29.009 47.099 28.7931 47.3614 28.4755C47.6237 28.1579 47.7667 27.7585 47.7655 27.3465C47.7655 27.2575 47.752 27.172 47.7395 27.0865L47.767 27.0805Z" fill="white"/>
</svg>
