<svg width="12" height="24" viewBox="0 0 12 24" fill="none" xmlns="http://www.w3.org/2000/svg">
<g clip-path="url(#clip0_286_628)">
<path d="M6 0C7.65685 0 9 1.34316 9 3C9 4.65684 7.65685 6 6 6C4.34316 6 3 4.65684 3 3C3 1.34316 4.34316 0 6 0ZM11.5914 16.6021L9.34139 7.60214C9.28054 7.35874 9.14008 7.14267 8.94233 6.98827C8.74458 6.83387 8.50089 6.75 8.25 6.75H7.7175C6.65292 7.23952 5.39297 7.26066 4.2825 6.75H3.75C3.49911 6.75 3.25543 6.83387 3.05768 6.98827C2.85993 7.14267 2.71946 7.35874 2.65861 7.60214L0.408611 16.6021C0.23133 17.3112 0.767955 18 1.5 18H4.125V22.875C4.125 23.4963 4.62867 24 5.25 24H6.75C7.37133 24 7.875 23.4963 7.875 22.875V18H10.5C11.2308 18 11.769 17.3123 11.5914 16.6021Z" fill="white"/>
</g>
<defs>
<clipPath id="clip0_286_628">
<rect width="12" height="24" fill="white"/>
</clipPath>
</defs>
</svg>
